<svg xmlns="http://www.w3.org/2000/svg" fill="none" class="w-full block" viewBox="0 0 80 46"><path fill="currentColor" fill-rule="evenodd" d="M15.303 0c.429.141.89.504 1.23.798-.287.548-.449.87-.608 1.468.159.446.506 1.194.702 1.692-.054.112-.113.257-.089.38.105.526.167 1.055.244 1.585.094.645.116 1.37.216 2.005.258 1.636.46 3.393.386 5.05-.024.55.094.617.123 1.14.01.196-.253.674-.261.886-.021.537.09 1.14-.033 1.662-.03.125-.089.433-.117.577l.135.11c.004.244-.061.512-.101.752-.034.2-.109.59-.115.766-.003.075.181-.033.107.265-.039.156-.107.417-.142.548.003-.013.13.436.14.477l-.177.27c.043.151.024.085.188.216l-.034.063-.108.03c.03.63.003 1.262-.082 1.887-.016.117-.141.697-.138.718.057.39.387.83.196 1.239-.03.064-.02.04.018.142 1.016-.043 2.77-1.006 3.684-1.455.553-.272 1.25-.852 1.37-1.466.655-3.366 1.39-6.753 2.239-10.073.134-.522.211-1.05.454-1.534l.033-.063c.045-.26.355-.804.49-1.102l.612.26c.175.102.423.204.508.354l-.094.019c-.12.024-.073.01-.168.045.178.1.238.091.31.24l-.101.077.086.184c-.231.197-1.21 3.085-1.252 3.637-.014.187.014.364.049.552-.054.105-.443.792-.446.838-.092 1.572-.826 3.166-.99 4.707-.142 1.321-.104 1.938-.565 3.231-.17.963-.483 1.904-.6 2.876-.155 1.286-.022 2.071-.276 3.4-.312 1.639.424 3.677.426 5.403 0 .708 1.13 2.917 1.392 3.683 2.92 3.612 6.811-2.792 7.903-5.17.298-.653.307-1.223.664-1.628a.4.4 0 0 1 .009-.154 2 2 0 0 1 .04-.177c.07-.26.188-.606.26-.856a3 3 0 0 0 .05-.213l.003-.013c.057-.215.061-.522.082-.804l.005-.066q.012-.143.036-.267.017-.087.044-.159c.068-.18.148-.334.225-.49.088-.176.173-.353.24-.569l.023-.083c.155-.303.262-.608.26-.955-.002-.785.529-1.518.734-2.274.199-.732.35-1.493.561-2.22.148-.51.02-2.134.655-2.218 1.077.525.847 2.684.735 3.636-.024.196-.101.383-.126.582-.046.38.003 1.039-.197 1.358l.101.066c.01-.04-.087.382-.09.314.027.646-.092 1.287-.067 1.94.02.531-.077.979-.08 1.503-.012.993.083 2 .088 2.99.003.72.225 1.675.198 2.363-.042 1.082-.16 2.01.07 3.105.017.083-.191.381-.27.462-.499.223-.83-.352-1.087-.715-.05-1.333.048-2.336-.194-3.662-.094-.513-.426-3.581-.363-3.98l.003-.016c-.009-.4.157-1.338-.138-1.591-.18.15-.307 1.13-.34 1.502l-.006.066-.05.024c.04.249-.298.837-.34 1.11-.19 1.219-.782 2-1.274 3.097-.865 1.93-2.03 3.551-3.463 5.102-1.107 1.198-1.852 1.776-3.576 1.505l-.178-.03c-.82-.136-1.614-.843-2.135-1.471-.554-.67-.818-1.56-1.14-2.348-.597-1.467-.965-2.813-1.079-4.397-.015-.215.092-.678.074-.864-.04-.417-.124-.663-.108-1.107.038-1.102.03-2.343.175-3.436.1-.769.228-1.502.325-2.286l-.05-.072c.16-.282-.066-.53.102-.833.068-.124.054-.367.07-.526l-.067-.065c-.349.219-.733.68-.999.793l-.123.037-.01.058c-.719.331-1.237.65-1.897 1.02-.635.358-1.508.175-1.766 1.148-.338 1.277-.63 3.91-.476 5.201-.109.02-.049.012-.18.021-.029.128-.012.15.049.272.151.306-.055.737-.113 1.09-.12.734-.143 1.475-.26 2.214-.021.133.16.315.13.542-.082.623-.247 1.288-.277 1.917.11.1.207.072.157.25-.002.01-.064.094-.065.098-.25 1.677-.193 3.44-1.24 4.91-.212.297-.408.733-.83.864l-.145-.048c-.192-.469.213-1.318.364-1.8.551-1.75.577-3.395.676-5.21q.148-2.318.259-4.638c.031-.777-.013-3.182.401-3.724-.107-.414.023-1.578-.15-1.825-.272.077-2.36 1.01-2.633 1.162l-.084-.084c-.337.11-1.094.512-1.444.686l-.032-.092-.03-.08c-.147.041-.14.027-.25.12l-.249.21-.086-.014-.053-.084-.048.052c-.072.078-.043.048-.128.125-.051-.12-.009-.085-.105-.133-.662.461-1.556.416-2.321.943-.072-.062-.044-.02-.056-.142-.082.025-1.22.379-1.166.34-.613.44-.957 1.4-1.264 2.07-.503 1.047-.546 1.663-.787 2.653-.18.544-.27 1.435-.66 1.814-.085.13-.482.997-.414 1.163.027.063.05.227.066.322-.49.882-.386 1.752-.947 2.696.079.861-.338 1.07-.583 1.853C1.508 42.91 1.216 45.983.48 46l-.004-.252c-.191.007-.012.075-.266.225-.074-.127-.158-.26-.174-.409-.087-.79.227-2.966.438-3.775.119-.459.36-.887.477-1.345.215-.847.373-1.74.658-2.567.457-1.322 1.652-4.048 1.709-5.307.02-.468.444-.862.356-1.33-.65-.44-2.14 1.302-2.858 1.337-.179.008-.594-.203-.732-.316-.763-1.61 3.911-2.54 4.482-3.223.693-.828 1.017-2.951 1.404-3.968.332-.957.78-1.858 1.123-2.81 1.978-5.504 4.02-11.002 6.029-16.482.2-.547-.164-.698.458-1.593.486-.7.675-4.03 1.723-4.185m-.102 4.91c-.24.189-.33.228-.459.509-.634 1.387-1.058 2.894-1.578 4.316-.652 1.78-1.447 3.54-1.958 5.371-.317 1.028-.683 2.092-1.193 3.033a8 8 0 0 0-.375.786c-.567 1.992-1.195 3.987-2.152 5.83-.124.24-.235 1.113-.34 1.41.013.772-.643 1.431-.605 2.123.383.153 2.98-.806 3.105-.77l.012-.094c.898-.313 5.308-1.628 5.728-2.103-.138-.242.051-1.666.113-2.006.392-2.138.046-4.338.466-6.485.052-.266-.194-.73.025-1.004.256-.437.118-.966.117-1.477a33.5 33.5 0 0 0-.236-4.215c-.09-.726-.232-1.469-.332-2.198-.118-.85.014-2.275-.338-3.026" clip-rule="evenodd"/><path fill="#000" d="M71.467 17.011c.405-.117 1.103.361 1.319.695.88.833 1.538 2.831 1.583 4.494.01.348-.007.68-.055.985a4 4 0 0 1-.113.496 2.5 2.5 0 0 1-.2.462l-.1.046c-.404-.35-.171-2.058-.314-2.576-.093-.338-.362-.632-.457-.994-.181-.448-.619-1.91-1.035-2.177-.1-.065-.81.338-.92.44-2.387 2.191-3.941 5.01-4.822 8.111-.182.643-.77 1.436-.8 2.152-.058 1.39-.078 2.588-.14 4.02-.044.983 1.206 3.88 2.252 4.271 1.182.21 2.034-.394 2.836-1.286.3-.437.757-.793 1.048-1.219.831-1.213 1.555-2.973 1.9-4.393.15-.614.503-2.642.702-3.1.115-.27.276-1.818.346-2.267.055-.718.144-3.362.69-3.683.296.25.647.246.823.654l-.104.107.036.074.118.035c.538 2.281.301 4.589.603 6.88.175 1.32-.11 2.627.067 3.94.108.797.441 1.589.698 2.35q.374 1.14.725 2.29c.228.718.498 1.532.808 2.22.402.89 1.287 1.583.973 2.65-.602.327-2.482-2.569-2.656-3.036-.873-2.341-1.68-4.801-2.091-7.27-.05-.31-.02-1.74-.02-2.15a20 20 0 0 0-.098-2.008l-.031-.312c-.896.926-.701 3.144-1.375 4.277-.365.614-.699 1.497-1.079 2.112-.146.236-.525 1.173-.64 1.299-.544.987-1.76 2.662-2.901 3.035-.148.047-.35-.03-.508-.073l-.147.105c-.082-.104-.044-.05-.115-.165-.2.204-.052.245-.262.307-.012-.114-.001-.117-.063-.215l-.2.081-.069-.03c-.041.014-.133.055-.164.047-.868-.195-1.5-.836-1.924-1.577-.543-.61-1.367-1.943-1.435-2.759a14.5 14.5 0 0 0-.248-1.829c.248-.624-.035-2.742.437-3.606.212-.387.084-1.067.26-1.61 1.069-3.272 2.62-6.263 5.05-8.738.47-.479 1.042-1.205 1.649-1.54l.025.161.065-.007zM47.634 17.8c.387-.09.836.1 1.169.29.082.048.055.063.072.193-.126.216-.16.377-.285.605l-.09.025-.008-.153-.05-.041c-.288.319-.645.499-.892.866-.302.448-.404 1.006-.561 1.503-.348 1.107-.62 2.214-.76 3.367a38 38 0 0 0-.22 2.237c-.027.478-.39 1.092-.443 1.507-.052.558-.09 1.154-.147 1.71-.19 1.816-.442 3.677-.093 5.487.07.365.04.837.137 1.211.243.906.584 2.345 1.852 1.936.38-.123.599-.27.947-.45.87-.388 1.3-1.231 1.926-1.83 1.176-1.125 1.716-2.09 2.465-3.523a25 25 0 0 0 .633-1.538q.104-.272.202-.542c.219-.598.426-1.194.653-1.813q.15-.412.318-.84a6 6 0 0 0 .148-.573c.047-.222.078-.412.125-.6a3 3 0 0 1 .07-.235q.033-.099.08-.202l.02-.043.014-.03.034-.066.018-.034a3 3 0 0 1 .08-.138 4 4 0 0 1 .147-.223l.02-.08.021-.1.052-.249c.055-.276.122-.617.183-.904l.03-.138c.045-.2.085-.358.114-.424l.009-.02.064-.166c.336-.886.885-2.491 1.586-2.949l.118-.01.007.257c.355.03.752 1.499.715 1.82-.1.876.051 1.877-.038 2.743.194.249.191.182.126.584a34 34 0 0 0-.3 2.193l.142.037c-.015.15-.018.306-.068.442l-.14-.017q.066.124.139.244c-.073.065-.028.04-.137.066.041.174.08.307.133.478l-.134.11c.091.125.125.118.12.223l-.12-.004c.002.151-.005.079.134.239l-.16.061c.056.122.076.13.17.23l-.13.117c.013.855.008 1.748.035 2.602.01.321.299 1.221.322 1.518.024.313-.204.454-.068 1.016.279 1.145.86 2.503.912 3.702.013.249-.223.562-.456.639-.275-.03-.152.014-.383-.146-.08-.167-.079-.087-.055-.245.13.041.197.124.299.217.033-.09.032-.045.009-.13-.174-.275-.683-.44-.835-.94-.124-.409-.044-.767-.125-1.142-.117-.54-.35-1.092-.465-1.639-.206-.916-.252-1.857-.35-2.789.004-.162-.14-.36-.147-.504-.064-1.39.052-2.785.043-4.174-.006-.913-.056-1.84.11-2.734.034-.186-.027-.294-.08-.489.059-.194.089-.253.08-.46-.308-.382-.022-.121-.097-.501l-.114.035.039-.043-.1.012a8 8 0 0 0-.131.25v.013c.009.136-.04.362-.123.641l-.05.164q-.067.209-.15.441l-.14.39c-.343.93-.759 1.969-.82 2.426-.031.23-.383.862-.455 1.115a6 6 0 0 0-.32.823c-.093.286-.184.59-.276.886-.152.486-.309.945-.495 1.252-.581 1.319-1.6 3.085-2.602 4.1-.555.561-2.588 3.034-3.317 2.934l.037-.134-.087.02c-.063.129-.088.256-.206.264-.247.019-.667.104-.895.045a.8.8 0 0 0 .022-.197h-.098l-.102.124c-.536-.018-1.184-.678-1.447-1.125-.018-.097-.371-1.108-.426-1.278-.06-.105-.053-.09-.062-.208-.043-.614-.273-1.144-.334-1.763-.115-1.18-.212-2.37-.16-3.556.028-.64.16-1.296.204-1.936.04-.643.022-1.305.112-1.947.12-.688.454-1.55.544-2.253.086-.673.153-1.367.243-2.043.042-.317.053-1.12.143-1.396.423-1.29.924-2.625 1.534-3.839.094-.187.348-.51.535-.612.001 0 .232.014.234.013.122-.184.048-.207.296-.264M59.87 8.998c.198-.153.345-.3.611-.265.437.058.948.535 1.197.885.352.466 1.243 1.644.965 2.223-.046.015-.24.075-.267.079-.195.027-.23.716-.433.882l-.21-.075c-.116.124.168.166.124.39l-.09-.016c-.798-1.003-1.264-2.505-1.991-3.59-.076-.113.048-.379.093-.513M38.94 8.86c1.023.235 1.725.664 2.023 1.737.066.24.014.49.157.7.2.295.096.566-.056.846l-.392.27c-.185-.118-.554-.719-.652-.92-.458-.952-1.538-1.485-1.08-2.634"/></svg>